<svg width="168.000000" height="50.000000" viewBox="0 0 168 50" fill="none" xmlns="http://www.w3.org/2000/svg" xmlns:xlink="http://www.w3.org/1999/xlink">
	<desc>
			Created with Pixso.
	</desc>
	<defs/>
	<path id="Vector" d="M4.19995 0L163.8 0C166.12 0 168 1.86548 168 4.16675L168 45.8333C168 48.1345 166.12 50 163.8 50L4.19995 50C1.88037 50 0 48.1345 0 45.8333L0 4.16675C0 1.86548 1.88037 0 4.19995 0Z" fill="#151515" fill-opacity="1.000000" fill-rule="evenodd"/>
	<path id="Vector" d="M35.3738 14.7581C38.9354 14.7581 41.2118 18.1887 41.2118 18.1887C41.2118 18.1887 37.7397 20.0664 37.7397 24.1414C37.7397 28.979 42.1035 30.3872 42.1035 30.3872C42.1035 30.3872 38.6595 38.5208 34.7899 38.5208C32.6144 38.5208 32.4688 37.2749 29.5778 37.2749C27.0662 37.2749 26.2206 38.5193 24.3082 38.5193C20.657 38.5193 15.9418 30.5886 15.9418 24.1372C15.9418 17.4387 20.7158 14.7554 23.709 14.7554C26.3368 14.7554 27.433 16.2971 29.547 16.2971C31.3292 16.2971 32.7319 14.7554 35.3738 14.7554L35.3738 14.7581ZM34.7606 7.9248C35.2827 11.2109 32.291 15.272 28.7125 15.1401C28.1876 10.9636 32.0446 8.1499 34.7578 7.92896L34.7606 7.9248Z" fill="#FFFFFF" fill-opacity="1.000000" fill-rule="evenodd"/>
	<mask id="mask4_292" mask-type="alpha" maskUnits="userSpaceOnUse" x="52.729614" y="8.126465" width="100.212036" height="36.383301">
		<path id="Vector" d="M52.7296 8.12646L152.942 8.12646L152.942 44.5098L52.7296 44.5098L52.7296 8.12793L52.7296 8.12646Z" fill="#FFFFFF" fill-opacity="1.000000" fill-rule="nonzero"/>
	</mask>
	<g mask="url(#mask4_292)">
		<path id="Vector" d="M61.9612 32.603L60.5472 28.2195C60.3975 27.7751 60.116 26.7195 59.7045 25.0598L59.6541 25.0598C59.486 25.7737 59.2228 26.8279 58.8588 28.2224L57.4686 32.6072L61.9626 32.6072L61.9612 32.603ZM66.8514 39.603L63.9954 39.603L62.433 34.6724L56.9996 34.6724L55.5087 39.603L52.7296 39.603L58.1154 22.8154L61.4404 22.8154L66.8514 39.6042L66.8514 39.603Z" fill="#FFFFFF" fill-opacity="1.000000" fill-rule="evenodd"/>
	</g>
	<mask id="mask4_296" mask-type="alpha" maskUnits="userSpaceOnUse" x="52.729614" y="8.126465" width="100.212036" height="36.383301">
		<path id="Vector" d="M52.7296 8.12646L152.942 8.12646L152.942 44.5098L52.7296 44.5098L52.7296 8.12646Z" fill="#FFFFFF" fill-opacity="1.000000" fill-rule="nonzero"/>
	</mask>
	<g mask="url(#mask4_296)">
		<path id="Vector" d="M77.9436 33.5C77.9436 32.3223 77.6804 31.3501 77.1512 30.5862C76.5717 29.7903 75.7932 29.3918 74.8174 29.3918C74.1566 29.3918 73.5574 29.614 73.0184 30.0515C72.4794 30.4937 72.1075 31.1042 71.9642 31.7834C71.8802 32.1167 71.8383 32.3862 71.8383 32.6028L71.8383 34.6223C71.8383 35.5029 72.1042 36.2473 72.6447 36.8542C73.1823 37.4597 73.8809 37.7639 74.7405 37.7639C75.7484 37.7639 76.5353 37.3723 77.098 36.5945C77.6608 35.8125 77.9423 34.7834 77.9423 33.5042L77.9436 33.5ZM80.6722 33.407C80.6722 35.4653 80.1165 37.0918 79.0021 38.2876C78.0038 39.3486 76.7621 39.8806 75.2836 39.8806C73.6876 39.8806 72.5397 39.3083 71.8396 38.1626L71.8396 44.5154L69.1656 44.5154L69.1656 31.4819C69.1656 30.1863 69.1321 28.8599 69.0676 27.5L71.4238 27.5L71.5736 29.4224L71.624 29.4224C72.52 27.9751 73.8738 27.2515 75.6938 27.2515C77.1162 27.2515 78.3035 27.8167 79.254 28.9458C80.2032 30.0779 80.6792 31.564 80.6792 33.407L80.6722 33.407Z" fill="#FFFFFF" fill-opacity="1.000000" fill-rule="evenodd"/>
	</g>
	<mask id="mask4_300" mask-type="alpha" maskUnits="userSpaceOnUse" x="52.729614" y="8.126465" width="100.212036" height="36.383301">
		<path id="Vector" d="M52.7296 8.12646L152.942 8.12646L152.942 44.5098L52.7296 44.5098L52.7296 8.12646Z" fill="#FFFFFF" fill-opacity="1.000000" fill-rule="nonzero"/>
	</mask>
	<g mask="url(#mask4_300)">
		<path id="Vector" d="M91.8176 33.5C91.8176 32.3223 91.5516 31.3501 91.0197 30.5862C90.4414 29.7903 89.6658 29.3918 88.6901 29.3918C88.0278 29.3918 87.4301 29.614 86.8896 30.0515C86.3505 30.4934 85.9792 31.1042 85.8368 31.7834C85.7528 32.1167 85.7108 32.3862 85.7108 32.6028L85.7108 34.6223C85.7108 35.5029 85.9796 36.2473 86.5159 36.8542C87.0535 37.4585 87.7534 37.7639 88.6158 37.7639C89.6238 37.7639 90.412 37.3723 90.972 36.5945C91.532 35.8125 91.8162 34.7834 91.8162 33.5042L91.8176 33.5ZM94.5463 33.407C94.5463 35.4653 93.9862 37.0918 92.8732 38.2876C91.8737 39.3486 90.6332 39.8806 89.1548 39.8806C87.5546 39.8806 86.4066 39.3083 85.7108 38.1626L85.7108 44.5154L83.0284 44.5154L83.0284 31.4819C83.0284 30.1863 82.9949 28.8599 82.9304 27.5L85.2866 27.5L85.4364 29.4224L85.4868 29.4224C86.38 27.9751 87.7366 27.2515 89.558 27.2515C90.979 27.2515 92.1676 27.8167 93.1196 28.9458C94.0674 30.0779 94.5463 31.564 94.5463 33.407Z" fill="#FFFFFF" fill-opacity="1.000000" fill-rule="evenodd"/>
	</g>
	<path id="Vector" d="M110.06 34.8945C110.06 36.3252 109.56 37.4863 108.571 38.3835C107.482 39.3599 105.963 39.8501 104.014 39.8501C102.215 39.8501 100.772 39.5 99.6827 38.8042L100.303 36.5613C101.479 37.2585 102.772 37.6069 104.177 37.6069C105.188 37.6069 105.973 37.3806 106.534 36.9238C107.099 36.4653 107.381 35.8569 107.381 35.0945C107.381 34.4141 107.147 33.8418 106.686 33.3765C106.221 32.9126 105.453 32.4792 104.378 32.082C101.447 30.9849 99.9823 29.3835 99.9823 27.2737C99.9823 25.896 100.5 24.7695 101.532 23.8848C102.565 23.0071 103.936 22.5654 105.64 22.5654C107.166 22.5654 108.433 22.832 109.441 23.3625L108.769 25.5571C107.819 25.0403 106.75 24.7834 105.554 24.7834C104.607 24.7834 103.865 25.0168 103.334 25.4819C102.889 25.896 102.662 26.4016 102.662 27.0029C102.662 27.6653 102.92 28.2153 103.432 28.646C103.88 29.0432 104.692 29.4766 105.864 29.9404C107.306 30.5237 108.363 31.2043 109.042 31.9819C109.724 32.7627 110.064 33.7349 110.064 34.8945L110.06 34.8945ZM118.945 29.5195L115.991 29.5195L115.991 35.3945C115.991 36.8918 116.512 37.6377 117.555 37.6377C118.035 37.6377 118.434 37.5959 118.745 37.5127L118.821 39.5542C118.294 39.7529 117.6 39.8528 116.739 39.8528C115.679 39.8528 114.853 39.5278 114.257 38.8806C113.66 38.2307 113.361 37.1445 113.361 35.6167L113.361 29.5098L111.602 29.5098L111.602 27.4958L113.362 27.4958L113.362 25.2793L115.994 24.4819L115.994 27.4958L118.948 27.4958L118.948 29.5181L118.945 29.5195ZM129.468 33.5154C129.468 32.407 129.23 31.4556 128.751 30.6599C128.188 29.6987 127.383 29.2183 126.343 29.2183C125.269 29.2183 124.444 29.6987 123.886 30.6599C123.404 31.4556 123.165 32.4238 123.165 33.5654C123.165 34.6765 123.403 35.6294 123.886 36.4238C124.466 37.3848 125.272 37.8655 126.322 37.8655C127.344 37.8655 128.146 37.375 128.73 36.3987C129.22 35.5862 129.468 34.6265 129.468 33.5154ZM132.247 33.4543C132.247 35.3154 131.715 36.8433 130.656 38.0376C129.546 39.2668 128.075 39.8806 126.238 39.8806C124.466 39.8806 123.056 39.2903 122.004 38.114C120.957 36.9333 120.431 35.4473 120.431 33.6558C120.431 31.7808 120.974 30.2432 122.055 29.0488C123.14 27.8542 124.6 27.2544 126.437 27.2544C128.206 27.2544 129.629 27.8459 130.704 29.0222C131.733 30.1667 132.244 31.6431 132.244 33.4529L132.247 33.4543ZM140.96 29.8667C140.681 29.8157 140.398 29.7905 140.115 29.7917C139.171 29.7917 138.443 30.1501 137.931 30.8667C137.483 31.4973 137.261 32.2944 137.261 33.2556L137.261 39.6099L134.582 39.6099L134.582 31.314C134.582 29.9209 134.554 28.6472 134.504 27.5029L136.837 27.5029L136.935 29.8196L137.01 29.8196C137.294 29.0251 137.738 28.3835 138.349 27.9028C138.907 27.4832 139.587 27.2554 140.287 27.2544C140.532 27.2544 140.755 27.271 140.953 27.303L140.956 29.8696L140.96 29.8667ZM150.388 32.2834C150.407 31.4849 150.231 30.7974 149.87 30.2141C149.404 29.4668 148.69 29.0933 147.734 29.0933C146.856 29.0933 146.143 29.457 145.6 30.1904C145.155 30.771 144.889 31.4683 144.807 32.2808L150.388 32.2834ZM152.944 32.9807C152.944 33.4626 152.912 33.8696 152.846 34.2029L144.807 34.2029C144.835 35.3972 145.228 36.3113 145.972 36.9419C146.65 37.5029 147.526 37.7849 148.602 37.7849C149.792 37.7849 150.878 37.5974 151.855 37.2153L152.275 39.0806C151.134 39.5806 149.783 39.8306 148.232 39.8306C146.362 39.8306 144.893 39.2778 143.825 38.175C142.761 37.071 142.224 35.5862 142.224 33.7278C142.224 31.9043 142.72 30.3848 143.714 29.1724C144.756 27.8779 146.164 27.2307 147.932 27.2307C149.671 27.2307 150.987 27.8779 151.88 29.1724C152.587 30.1973 152.944 31.4683 152.944 32.9778L152.944 32.9807ZM58.2665 13.3667L57.5707 11.2141C57.4979 10.9917 57.3635 10.4778 57.1564 9.65845L57.1311 9.65845C57.0471 10.0112 56.924 10.5266 56.7391 11.2141L56.0574 13.3667L58.2665 13.3667ZM60.6675 16.8042L59.2676 16.8042L58.4976 14.3806L55.8263 14.3806L55.0955 16.8057L53.7263 16.8057L56.3723 8.55566L58.0076 8.55566L60.6675 16.8042ZM67.2896 10.8569L65.0425 16.8042L63.7615 16.8042L61.5916 10.8569L63.0055 10.8569L64.0192 14.0029C64.1899 14.5308 64.3356 15.0308 64.4447 15.5071L64.4825 15.5071C64.5806 15.0793 64.7261 14.5764 64.9081 14.0029L65.9064 10.8557L67.2853 10.8557L67.2896 10.8569ZM71.8815 13.8433C70.4199 13.8433 69.6877 14.1987 69.6877 15.0417C69.6877 15.6667 70.0657 15.9724 70.5907 15.9724C71.2627 15.9724 71.8829 15.4585 71.8829 14.7612L71.8829 13.8445L71.8815 13.8433ZM72.0677 16.8057L71.9697 16.1208L71.9319 16.1208C71.5302 16.6724 70.9449 16.9404 70.2001 16.9404C69.1361 16.9404 68.3801 16.1946 68.3801 15.1904C68.3801 13.7209 69.6486 12.9626 71.8438 12.9626L71.8438 12.8516C71.8438 12.0681 71.4293 11.6765 70.6117 11.6765C70.0626 11.6667 69.5233 11.8206 69.0634 12.1182L68.7946 11.2488C69.3447 10.9058 70.0265 10.7349 70.8329 10.7349C72.3813 10.7349 73.1625 11.5542 73.1625 13.196L73.1625 15.3848C73.1625 15.9875 73.1877 16.4543 73.2465 16.8071L72.0635 16.8071L72.0677 16.8057Z" fill="#FFFFFF" fill-opacity="1.000000" fill-rule="evenodd"/>
	<mask id="mask4_305" mask-type="alpha" maskUnits="userSpaceOnUse" x="52.729614" y="8.126465" width="100.212036" height="36.383301">
		<path id="Vector" d="M52.7296 8.12646L152.942 8.12646L152.942 44.5098L52.7296 44.5098L52.7296 8.12793L52.7296 8.12646Z" fill="#FFFFFF" fill-opacity="1.000000" fill-rule="nonzero"/>
	</mask>
	<g mask="url(#mask4_305)">
		<path id="Vector" d="M76.7844 16.8069L75.4684 16.8069L75.4684 10.8569L76.7844 10.8569L76.7844 16.8069ZM76.1012 9.87622C75.9968 9.87646 75.8933 9.85596 75.7971 9.81567C75.7008 9.77563 75.6136 9.71655 75.5409 9.64233C75.468 9.56812 75.4109 9.48022 75.3729 9.38379C75.3351 9.28711 75.317 9.18408 75.3201 9.08057C75.3201 8.63037 75.6742 8.29858 76.1265 8.29858C76.5773 8.29858 76.9426 8.63184 76.9301 9.08325C76.9301 9.56104 76.5898 9.87915 76.1012 9.87915L76.1012 9.87622ZM80.4413 16.8069L79.1252 16.8069L79.1252 8.12622L80.4413 8.12622L80.4413 16.8069ZM85.8593 13.843C84.3934 13.843 83.6613 14.1985 83.6613 15.0415C83.6613 15.6665 84.0392 15.9722 84.5642 15.9722C85.2321 15.9722 85.855 15.4583 85.855 14.761L85.855 13.8445L85.8593 13.843ZM86.0413 16.8054L85.9432 16.1208L85.9069 16.1208C85.5037 16.6721 84.9185 16.9402 84.1736 16.9402C83.1138 16.9402 82.3564 16.1943 82.3564 15.1902C82.3564 13.7207 83.6249 12.9624 85.8214 12.9624L85.8214 12.8513C85.8214 12.0679 85.4056 11.6763 84.5895 11.6763C84.0015 11.6763 83.4905 11.8235 83.041 12.1179L82.775 11.2471C83.3239 10.907 84.0071 10.7332 84.812 10.7332C86.3605 10.7332 87.1431 11.5527 87.1431 13.1973L87.1431 15.3848C87.1431 15.9861 87.1669 16.4514 87.2271 16.8054L86.0413 16.8054ZM92.2096 11.7734C91.4508 11.7734 90.7565 12.4346 90.7565 13.3528L90.7565 14.3943C90.7565 15.2139 91.3794 15.8875 92.1844 15.8875C93.1729 15.8875 93.7594 15.0791 93.7594 13.7944C93.7594 12.5945 93.1476 11.7734 92.2083 11.7734L92.2096 11.7734ZM92.4742 16.9402C91.6343 16.9402 91.0112 16.5847 90.608 15.8875L90.5828 15.8875L90.5059 16.8042L89.3859 16.8042C89.4194 16.3291 89.432 15.7903 89.432 15.2026L89.432 8.12354L90.7509 8.12354L90.7509 11.7236L90.7747 11.7236C91.1638 11.0625 91.7966 10.7319 92.6647 10.7319C94.0927 10.7319 95.0923 11.9583 95.0923 13.7458C95.0923 15.593 93.9821 16.9402 92.47 16.9402L92.4742 16.9402ZM98.364 16.8069L97.048 16.8069L97.048 8.12622L98.364 8.12622L98.364 16.8069ZM104.325 13.2068C104.325 12.2903 103.863 11.6401 103.02 11.6401C102.262 11.6401 101.668 12.3013 101.578 13.2068L104.325 13.2068ZM105.533 14.1484L101.578 14.1484C101.606 15.2764 102.348 15.9124 103.445 15.9124C104.033 15.9124 104.567 15.8125 105.041 15.6304L105.246 16.5471C104.686 16.793 104.028 16.9153 103.258 16.9153C101.406 16.9153 100.309 15.7402 100.309 13.9153C100.309 12.093 101.431 10.7207 103.113 10.7207C104.621 10.7207 105.577 11.8486 105.577 13.5498C105.58 13.7791 105.567 13.9873 105.531 14.1472L105.533 14.1484ZM113.569 11.7C112.617 11.7 112.006 12.593 112.006 13.8416C112.006 15.0637 112.631 15.9583 113.56 15.9583C114.484 15.9583 115.107 15.0027 115.107 13.8137C115.107 12.6055 114.496 11.6985 113.571 11.6985L113.569 11.7ZM113.518 16.9402C111.786 16.9402 110.662 15.6431 110.662 13.8804C110.662 12.0444 111.81 10.7332 113.618 10.7332C115.322 10.7332 116.472 11.9695 116.472 13.7861C116.472 15.6472 115.289 16.9429 113.518 16.9429L113.518 16.9402ZM123.556 16.8083L122.24 16.8083L122.24 13.3916C122.24 12.3401 121.836 11.8125 121.043 11.8125C120.263 11.8125 119.724 12.4861 119.724 13.2708L119.724 16.8083L118.408 16.8083L118.408 12.5583C118.408 12.0332 118.394 11.4695 118.359 10.8582L119.518 10.8582L119.58 11.7749L119.616 11.7749C119.966 11.136 120.69 10.7332 121.492 10.7332C122.738 10.7332 123.554 11.6875 123.554 13.2417L123.554 16.8054L123.556 16.8083ZM132.173 11.8499L130.724 11.8499L130.724 14.7388C130.724 15.4749 130.978 15.8416 131.489 15.8416C131.722 15.8416 131.918 15.8167 132.077 15.7805L132.112 16.7847C131.856 16.8818 131.513 16.9319 131.09 16.9319C130.05 16.9319 129.431 16.3569 129.431 14.8486L129.431 11.8486L128.568 11.8486L128.568 10.8569L129.431 10.8569L129.431 9.7666L130.724 9.37354L130.724 10.8569L132.173 10.8569L132.173 11.8472L132.173 11.8499ZM139.149 16.8083L137.83 16.8083L137.83 13.4194C137.83 12.3528 137.427 11.8137 136.634 11.8137C135.951 11.8137 135.318 12.2791 135.318 13.2222L135.318 16.811L134 16.811L134 8.12622L135.318 8.12622L135.318 11.7L135.346 11.7C135.758 11.0513 136.354 10.7332 137.124 10.7332C138.382 10.7332 139.149 11.7151 139.149 13.2693L139.149 16.8083ZM144.672 13.2109C144.672 12.2944 144.21 11.6416 143.367 11.6416C142.611 11.6416 142.016 12.3042 141.929 13.2109L144.673 13.2109L144.672 13.2109ZM145.88 14.1514L141.926 14.1514C141.952 15.2791 142.694 15.9153 143.791 15.9153C144.379 15.9153 144.914 15.8152 145.387 15.6333L145.594 16.5498C145.034 16.7957 144.376 16.918 143.606 16.918C141.751 16.918 140.655 15.7429 140.655 13.918C140.655 12.0957 141.775 10.7236 143.459 10.7236C144.971 10.7236 145.923 11.8513 145.923 13.5527C145.929 13.782 145.916 13.9902 145.881 14.1499L145.88 14.1514Z" fill="#FFFFFF" fill-opacity="1.000000" fill-rule="evenodd"/>
	</g>
</svg>
