<svg width="168.000000" height="50.000000" viewBox="0 0 168 50" fill="none" xmlns="http://www.w3.org/2000/svg" xmlns:xlink="http://www.w3.org/1999/xlink">
	<desc>
			Created with Pixso.
	</desc>
	<defs>
		<clipPath id="clip4_332">
			<rect id="google-play-1b282a5faa8753db97e49dd35e98dd25 1" width="168.000000" height="50.000000" fill="white" fill-opacity="0"/>
		</clipPath>
		<linearGradient id="paint_linear_4_312_0" x1="400.500610" y1="-527.480347" x2="1405.696777" y2="1439.186279" gradientUnits="userSpaceOnUse">
			<stop stop-color="#19A3B4"/>
			<stop offset="0.348170" stop-color="#5BC3AF"/>
			<stop offset="0.922340" stop-color="#C9F7A6"/>
			<stop offset="1.000000" stop-color="#D7FEA5"/>
		</linearGradient>
		<linearGradient id="paint_linear_4_313_0" x1="-148.423340" y1="-1073.067993" x2="939.504028" y2="1112.069580" gradientUnits="userSpaceOnUse">
			<stop stop-color="#FC227C"/>
			<stop offset="1.000000" stop-color="#FEEB7B"/>
		</linearGradient>
		<linearGradient id="paint_linear_4_314_0" x1="470.515625" y1="-441.658264" x2="795.494141" y2="2536.264648" gradientUnits="userSpaceOnUse">
			<stop stop-color="#0E4DA0"/>
			<stop offset="1.000000" stop-color="#6BFED4"/>
		</linearGradient>
		<linearGradient id="paint_linear_4_315_0" x1="2674.983887" y1="277.311523" x2="134.715820" y2="1960.028320" gradientUnits="userSpaceOnUse">
			<stop stop-color="#FC472E"/>
			<stop offset="0.003320" stop-color="#FC472E"/>
			<stop offset="1.000000" stop-color="#893CD8"/>
		</linearGradient>
	</defs>
	<rect id="google-play-1b282a5faa8753db97e49dd35e98dd25 1" width="168.000000" height="50.000000" fill="#FFFFFF" fill-opacity="0"/>
	<g clip-path="url(#clip4_332)">
		<path id="Vector" d="M4.19995 0L163.8 0C166.12 0 168 1.86548 168 4.16675L168 45.8333C168 48.1345 166.12 50 163.8 50L4.19995 50C1.88037 50 0 48.1345 0 45.8333L0 4.16675C0 1.86548 1.88037 0 4.19995 0Z" fill="#151515" fill-opacity="1.000000" fill-rule="evenodd"/>
		<path id="Vector" d="M34.944 20.293L16.2863 10.0708C15.757 9.7832 15.2698 9.71387 14.875 9.83887L30.156 25.061L34.944 20.2903L34.944 20.293Z" fill="url(#paint_linear_4_312_0)" fill-opacity="1.000000" fill-rule="nonzero"/>
		<path id="Vector" d="M34.9678 29.8584L41.3378 26.3694C42.6287 25.6582 42.6287 24.5027 41.3378 23.7944L34.944 20.2944L30.156 25.064L34.9678 29.8584Z" fill="url(#paint_linear_4_313_0)" fill-opacity="1.000000" fill-rule="evenodd"/>
		<path id="Vector" d="M14.875 9.83887C14.3052 10.0139 13.937 10.5889 13.937 11.45L13.9426 38.7083C13.9426 39.564 14.2982 40.1277 14.8499 40.3167L30.156 25.064L14.875 9.83887Z" fill="url(#paint_linear_4_314_0)" fill-opacity="1.000000" fill-rule="nonzero"/>
		<path id="Vector" d="M14.8499 40.3196C15.2474 40.4531 15.7458 40.3892 16.2863 40.0947L34.9651 29.8586L30.156 25.0669L14.8499 40.3196Z" fill="url(#paint_linear_4_315_0)" fill-opacity="1.000000" fill-rule="nonzero"/>
		<path id="Vector" d="M57.3608 8.44043C58.5369 8.44043 59.3517 8.96533 59.8809 9.50293L59.0548 10.4238C58.6293 10.0142 58.1631 9.73218 57.3749 9.73218C55.874 9.73218 54.8661 10.8848 54.8661 12.7654C54.8661 14.6738 55.7705 15.8267 57.4645 15.8267C57.9307 15.8267 58.3955 15.6987 58.6685 15.4543L58.6685 13.6487L57.0752 13.6487L57.0752 12.4348L60.0111 12.4348L60.0111 16.1211C59.4301 16.6584 58.4347 17.1182 57.2838 17.1182C55.0326 17.1182 53.326 15.5835 53.326 12.8057C53.326 10.0654 55.0845 8.44043 57.358 8.44043L57.3608 8.44043ZM65.5732 13.2642C65.5732 12.2668 65.149 11.6667 64.2825 11.6667C63.5321 11.6667 62.8853 12.2153 62.7565 13.2642L65.5732 13.2642ZM64.2433 10.5278C65.9624 10.5278 66.8683 11.7544 66.8683 13.5071C66.8683 13.7905 66.8402 14.0447 66.8038 14.1987L62.769 14.1987C62.895 15.3376 63.623 15.9792 64.645 15.9792C65.1854 15.9792 65.6503 15.8127 66.115 15.5183L66.619 16.439C66.0128 16.835 65.2512 17.1167 64.4491 17.1167C62.6892 17.1167 61.3201 15.9016 61.3201 13.8279C61.3214 11.7778 62.7565 10.5278 64.2433 10.5278ZM68.3173 11.8445L67.4143 11.8445L67.4143 10.7446L68.3971 10.6807L68.5791 8.96411L69.8195 8.96411L69.8195 10.6807L71.4351 10.6807L71.4351 11.8445L69.8195 11.8445L69.8195 14.8391C69.8195 15.5808 70.1023 15.939 70.7113 15.939C70.931 15.939 71.1901 15.8752 71.3693 15.8L71.6296 16.8862C71.2797 17.0015 70.8401 17.1167 70.3361 17.1167C68.8618 17.1167 68.3201 16.1946 68.3201 14.8391L68.3201 11.8445L68.3173 11.8445Z" fill="#E7E7E7" fill-opacity="1.000000" fill-rule="evenodd"/>
		<mask id="mask4_319" mask-type="alpha" maskUnits="userSpaceOnUse" x="51.503174" y="7.902832" width="104.918823" height="37.222168">
			<path id="Vector" d="M51.5032 7.90283L156.422 7.90283L156.422 45.125L51.5032 45.125L51.5032 7.90283Z" fill="#E7E7E7" fill-opacity="1.000000" fill-rule="nonzero"/>
		</mask>
		<g mask="url(#mask4_319)">
			<path id="Vector" d="M75.4208 10.6807L76.9076 10.6807L76.9076 16.9639L75.4208 16.9639L75.4208 10.6807ZM75.2528 8.74731C75.2528 8.24731 75.6406 7.90283 76.1698 7.90283C76.7018 7.90283 77.0868 8.25 77.0868 8.74731C77.0868 9.2334 76.7004 9.58057 76.1685 9.58057C75.6364 9.58057 75.25 9.2334 75.25 8.74731L75.2528 8.74731ZM79.03 11.8445L78.1241 11.8445L78.1241 10.7444L79.1084 10.6807L79.2904 8.96387L80.5308 8.96387L80.5308 10.6807L82.1464 10.6807L82.1464 11.8445L80.5308 11.8445L80.5308 14.8389C80.5308 15.5806 80.8136 15.939 81.4226 15.939C81.6438 15.939 81.9014 15.875 82.0834 15.8L82.3424 16.8862C81.9924 17.0015 81.5529 17.1167 81.0488 17.1167C79.5746 17.1167 79.0328 16.1946 79.0328 14.8389L79.0328 11.8445L79.03 11.8445ZM88.7292 15.9141C89.6616 15.9141 90.23 15.0806 90.23 13.8279C90.23 12.5613 89.6616 11.7307 88.7292 11.7307C87.7982 11.7307 87.2452 12.5613 87.2452 13.8279C87.2452 15.082 87.7982 15.9141 88.7292 15.9141ZM88.7292 10.5251C90.3196 10.5251 91.756 11.7292 91.756 13.8279C91.756 15.9141 90.3196 17.1194 88.7292 17.1194C87.1514 17.1194 85.7192 15.9141 85.7192 13.8279C85.7192 11.7307 87.1514 10.5264 88.7292 10.5264L88.7292 10.5251ZM93.233 10.6807L94.4608 10.6807L94.5645 11.5251L94.6147 11.5251C95.1846 10.9751 95.8328 10.5251 96.698 10.5251C98.056 10.5251 98.6497 11.4348 98.6497 13.0222L98.6497 16.9639L97.1628 16.9639L97.1628 13.2139C97.1628 12.1765 96.8688 11.7944 96.1688 11.7944C95.6116 11.7944 95.2504 12.0613 94.7184 12.5723L94.7184 16.9639L93.2344 16.9639L93.2344 10.6807L93.233 10.6807Z" fill="#E7E7E7" fill-opacity="1.000000" fill-rule="evenodd"/>
		</g>
		<mask id="mask4_323" mask-type="alpha" maskUnits="userSpaceOnUse" x="51.503174" y="7.902832" width="104.918823" height="37.222168">
			<path id="Vector" d="M51.5032 7.90283L156.422 7.90283L156.422 45.125L51.5032 45.125L51.5032 7.90283Z" fill="#FFFFFF" fill-opacity="1.000000" fill-rule="nonzero"/>
		</mask>
		<g mask="url(#mask4_323)">
			<path id="Vector" d="M127.498 29.7529C126.442 29.7529 125.678 30.0444 125.206 30.6238C124.734 31.2014 124.492 32.1238 124.478 33.3877L124.478 33.7349C124.478 35.1709 124.72 36.1987 125.206 36.821C125.689 37.4404 126.466 37.7515 127.537 37.7515C128.43 37.7515 129.133 37.3904 129.637 36.675C130.145 35.9612 130.397 34.9724 130.397 33.7139C130.397 32.439 130.145 31.4585 129.636 30.7764C129.132 30.0933 128.418 29.7515 127.497 29.7515L127.498 29.7529ZM127.725 39.0474C127.05 39.0474 126.437 38.925 125.88 38.6792C125.32 38.4312 124.836 38.0396 124.48 37.5444L124.363 37.5444C124.44 38.1418 124.478 38.7085 124.478 39.2432L124.478 43.457L122.913 43.457L122.913 28.625L124.187 28.625L124.403 30.0251L124.478 30.0251C124.881 29.4639 125.349 29.0625 125.887 28.8113C126.464 28.5544 127.092 28.4272 127.725 28.439C129.097 28.439 130.155 28.9014 130.903 29.8279C131.645 30.7556 132.017 32.0598 132.017 33.7349C132.017 35.4153 131.639 36.7209 130.883 37.6514C130.123 38.582 129.072 39.0474 127.725 39.0474ZM135.646 38.8613L134.078 38.8613L134.078 24.3279L135.646 24.3279L135.646 38.8613ZM141.115 37.7695C142.09 37.7695 142.857 37.5056 143.41 36.9778C143.968 36.446 144.246 35.7043 144.246 34.7515L144.246 33.8306L142.678 33.8945C141.432 33.939 140.536 34.1306 139.987 34.4695C139.436 34.8083 139.161 35.3389 139.161 36.053C139.161 36.6125 139.329 37.0391 139.675 37.3306C140.018 37.625 140.497 37.7695 141.115 37.7695ZM144.651 38.8625L144.343 37.407L144.266 37.407C143.748 38.05 143.234 38.4834 142.72 38.7085C142.209 38.9348 141.568 39.0488 140.802 39.0488C139.776 39.0488 138.972 38.7876 138.39 38.2654C137.808 37.7432 137.516 37.0015 137.516 36.0334C137.516 33.9668 139.185 32.8806 142.528 32.7834L144.283 32.7278L144.283 32.0889C144.283 31.2891 144.108 30.6946 143.758 30.3113C143.408 29.9292 142.848 29.7375 142.082 29.7375C141.221 29.7375 140.248 30.0015 139.16 30.5222L138.677 29.3347C139.187 29.0625 139.745 28.8486 140.351 28.6904C140.949 28.5366 141.563 28.4587 142.18 28.4585C143.412 28.4585 144.325 28.7278 144.92 29.271C145.513 29.8125 145.811 30.6792 145.811 31.875L145.811 38.8613L144.649 38.8613L144.651 38.8625ZM146.723 28.625L148.403 28.625L150.668 34.4639C151.162 35.7974 151.473 36.7585 151.592 37.3501L151.666 37.3501C151.75 37.0308 151.918 36.489 152.184 35.7183C152.443 34.9502 153.296 32.5835 154.742 28.6238L156.422 28.6238L151.98 40.2808C151.537 41.4333 151.024 42.25 150.434 42.7334C149.846 43.2168 149.124 43.4556 148.27 43.4556C147.791 43.4556 147.318 43.4001 146.853 43.2959L146.853 42.053C147.199 42.1306 147.587 42.1667 148.015 42.1667C149.089 42.1667 149.856 41.5667 150.315 40.375L150.895 38.9167L146.723 28.6208L146.723 28.625ZM97.7985 35.0139C98.2969 34.5195 98.3402 33.8389 98.3402 33.4514C98.3402 31.9099 97.4092 29.5112 95.6144 29.5112C95.0516 29.5112 94.4454 29.7917 94.0996 30.2195C93.7314 30.6682 93.6237 31.2473 93.6237 31.803C93.6237 33.2375 94.4692 35.6167 96.3285 35.6167C96.8768 35.6035 97.4008 35.3887 97.7985 35.0139ZM97.1726 39.0835C97.0005 39.0613 96.8926 39.0613 96.677 39.0613C96.4811 39.0613 95.312 39.1028 94.4048 39.4084C93.9288 39.5752 92.5428 40.0918 92.5428 41.6099C92.5428 43.1279 94.0381 44.2209 96.3508 44.2209C98.4285 44.2209 99.5316 43.2375 99.5316 41.9099C99.5316 40.8154 98.8176 40.239 97.1741 39.0835L97.1726 39.0835ZM98.7084 29.5764C99.2083 29.9819 100.244 30.8403 100.244 32.4653C100.244 34.0515 99.3342 34.8015 98.4285 35.5071C98.1484 35.782 97.8208 36.0876 97.8208 36.5583C97.8208 37.0278 98.147 37.2849 98.385 37.4778L99.1648 38.0752C100.117 38.8708 100.981 39.5974 100.981 41.0752C100.981 43.0889 99.0094 45.1238 95.291 45.1238C92.155 45.1238 90.6431 43.6431 90.6431 42.0598C90.6431 41.2876 91.0281 40.1987 92.3091 39.446C93.6475 38.6321 95.4661 38.5264 96.4391 38.4597C96.1338 38.0764 95.7894 37.6682 95.7894 37.0085C95.7894 36.6404 95.8972 36.425 96.005 36.1682C95.7671 36.1904 95.5291 36.2097 95.312 36.2097C93.0216 36.2097 91.7239 34.5181 91.7239 32.8486C91.7239 31.8655 92.1775 30.7722 93.1071 29.9807C94.339 28.9751 95.8091 28.803 96.9808 28.803L101.437 28.803L100.051 29.5737L98.7098 29.5737L98.7084 29.5764ZM87.7885 37.0098C88.3064 36.3264 88.4366 35.4683 88.4366 34.6348C88.4366 32.7542 87.5337 29.1626 84.8527 29.1626C84.1415 29.1626 83.4288 29.4404 82.9109 29.8904C82.0708 30.6404 81.9169 31.5806 81.9169 32.5015C81.9169 34.6167 82.9752 38.1016 85.589 38.1016C86.4291 38.1016 87.297 37.6946 87.7898 37.0112L87.7885 37.0098ZM85.092 38.7446C81.6592 38.7446 79.8239 36.0918 79.8239 33.696C79.8239 30.8972 82.1338 28.5015 85.4169 28.5015C88.5906 28.5015 90.5786 30.9597 90.5786 33.5488C90.5786 36.071 88.613 38.7432 85.0906 38.7432L85.092 38.7446ZM76.0845 37.0098C76.6024 36.3264 76.7312 35.4683 76.7312 34.6348C76.7312 32.7542 75.824 29.1626 73.1472 29.1626C72.4332 29.1626 71.7192 29.4404 71.204 29.8904C70.3584 30.6404 70.2101 31.5806 70.2101 32.5015C70.2101 34.6167 71.2671 38.1016 73.8809 38.1016C74.7236 38.1016 75.5861 37.6946 76.0845 37.0112L76.0845 37.0098ZM73.3853 38.7446C69.9496 38.7446 68.1128 36.0918 68.1128 33.696C68.1128 30.8972 70.4257 28.5015 73.7086 28.5015C76.8838 28.5015 78.8705 30.9597 78.8705 33.5488C78.8705 36.071 76.9062 38.7432 73.3866 38.7432L73.3853 38.7446ZM66.4623 38.407L63.3599 39.1155C62.0956 39.3098 60.9658 39.4792 59.7759 39.4792C53.7838 39.4792 51.5018 35.1182 51.5018 31.7014C51.5018 27.5308 54.7358 23.6626 60.2742 23.6626C61.3965 23.6646 62.5134 23.8159 63.595 24.1125C65.2246 24.5654 65.9849 25.1238 66.4608 25.446L64.6591 27.1431L63.9003 27.3154L64.4435 26.4543C63.7042 25.7458 62.3574 24.4348 59.7954 24.4348C56.3655 24.4348 53.7825 27.0181 53.7825 30.7778C53.7825 34.8167 56.7322 38.6223 61.4656 38.6223C62.8572 38.6223 63.5726 38.3403 64.2236 38.0835L64.2236 34.625L60.9476 34.7959L62.6836 33.8682L67.2869 33.8682L66.7212 34.4099C66.5673 34.5376 66.5463 34.5793 66.5043 34.7529C66.4818 34.9446 66.4595 35.5696 66.4595 35.7808L66.4595 38.4058L66.4623 38.407Z" fill="#FFFFFF" fill-opacity="1.000000" fill-rule="evenodd"/>
		</g>
		<mask id="mask4_327" mask-type="alpha" maskUnits="userSpaceOnUse" x="51.503174" y="7.902832" width="104.918823" height="37.222168">
			<path id="Vector" d="M51.5032 7.90283L156.422 7.90283L156.422 45.125L51.5032 45.125L51.5032 7.90283Z" fill="#FFFFFF" fill-opacity="1.000000" fill-rule="nonzero"/>
		</mask>
		<g mask="url(#mask4_327)">
			<path id="Vector" d="M105.571 37.7876C104.854 37.7224 104.703 37.5959 104.703 36.7544L104.703 24.5906L104.717 24.4517C104.804 23.6987 105.02 23.571 105.697 23.1821L102.589 23.1821L100.96 23.96L102.619 23.96L102.619 37.2266C102.619 37.6572 102.535 37.7224 102.033 38.3655L105.876 38.3655L106.681 37.8975C106.312 37.8501 105.942 37.8308 105.573 37.7864L105.571 37.7876ZM112.379 31.6211C112.79 31.4739 113.004 31.3433 113.004 31.0474C113.004 30.1946 112.034 29.2112 110.869 29.2112C110.005 29.2112 108.391 29.8738 108.391 32.1794C108.391 32.5405 108.433 32.9253 108.457 33.3086L112.377 31.6196L112.379 31.6211ZM114.409 37.9849C114.171 38.1099 113.933 38.2627 113.698 38.3669C112.984 38.6904 112.251 38.7737 111.602 38.7737C110.916 38.7737 109.836 38.7292 108.737 37.9404C107.205 36.8738 106.539 35.0376 106.539 33.4363C106.539 30.1265 109.257 28.5059 111.476 28.5059C112.252 28.5059 113.05 28.7002 113.7 29.103C114.775 29.8071 115.055 30.7239 115.206 31.2168L110.141 33.2446L108.479 33.3738C109.018 36.082 110.873 37.6626 112.921 37.6626C114.022 37.6626 114.82 37.2781 115.553 36.9167L114.411 37.9863L114.409 37.9849ZM116.488 28.6531L116.488 30.0613L116.315 30.0613L116.315 28.6531L115.844 28.6531L115.844 28.5071L116.96 28.5071L116.96 28.6531L116.488 28.6531ZM118.427 30.0613L118.427 28.6392L118.423 28.6392L117.982 30.0613L117.846 30.0613L117.404 28.6404L117.4 28.6404L117.4 30.0627L117.24 30.0627L117.24 28.5071L117.51 28.5071L117.911 29.7654L117.914 29.7654L118.308 28.5085L118.58 28.5085L118.58 30.064L118.426 30.064L118.427 30.0613Z" fill="#FFFFFF" fill-opacity="1.000000" fill-rule="evenodd"/>
		</g>
	</g>
</svg>
